<svg height="1028pt" viewBox="0 0 1028.0028 1028" width="1028pt" xmlns="http://www.w3.org/2000/svg"><path d="m205.597656 119.933594h616.800782c18.925781 0 34.265624 15.34375 34.265624 34.269531v719.597656c0 18.925781-15.339843 34.265625-34.265624 34.265625h-616.800782c-18.921875 0-34.265625-15.339844-34.265625-34.265625v-719.597656c0-18.925781 15.34375-34.269531 34.265625-34.269531zm0 0" fill="#e6e7e8"/><path d="m171.332031 942.332031c0 37.851563 30.683594 68.535157 68.535157 68.535157h548.261718c37.851563 0 68.535156-30.683594 68.535156-68.535157v-34.265625h-685.332031zm376.933594 17.132813" fill="#414042"/><path d="m788.128906 17.136719h-548.261718c-37.851563 0-68.535157 30.679687-68.535157 68.53125v34.265625h685.332031v-34.265625c0-37.851563-30.683593-68.53125-68.535156-68.53125zm0 0" fill="#414042"/><path d="m856.664062 301.71875c-136.164062-66.1875-300.203124-9.460938-366.390624 126.703125-66.191407 136.164063-9.460938 300.203125 126.703124 366.394531 75.664063 36.777344 164.023438 36.777344 239.6875 0 136.164063-66.191406 192.890626-230.230468 126.703126-366.394531-26.847657-55.234375-71.46875-99.851563-126.703126-126.703125zm-154.199218 212.28125c-.054688 18.902344-15.363282 34.210938-34.265625 34.265625h-68.535157c-18.902343.058594-34.207031 15.367187-34.265624 34.269531v68.53125c.054687 18.902344 15.363281 34.210938 34.265624 34.265625-18.902343-.054687-34.207031-15.363281-34.265624-34.265625v-68.53125c.054687-18.902344 15.363281-34.210937 34.265624-34.269531h68.535157c18.902343-.054687 34.207031-15.363281 34.265625-34.265625v-68.53125c-.054688-18.902344-15.363282-34.210938-34.265625-34.269531 18.902343.058593 34.207031 15.367187 34.265625 34.269531zm205.597656-34.265625v-34.265625c0-18.925781-15.339844-34.269531-34.265625-34.269531h-68.53125c-18.925781 0-34.269531 15.34375-34.269531 34.269531v205.597656c.058594 18.902344 15.367187 34.210938 34.269531 34.265625h68.53125c18.902344-.054687 34.210937-15.363281 34.265625-34.265625v-102.800781 102.800781c-.054688 18.902344-15.363281 34.210938-34.265625 34.265625h-68.53125c-18.902344-.054687-34.210937-15.363281-34.269531-34.265625v-205.597656c0-18.925781 15.34375-34.269531 34.269531-34.269531h68.53125c18.925781 0 34.265625 15.34375 34.265625 34.269531zm0 0" fill="#33dfe5"/><path d="m770.996094 171.335938h34.269531v34.265624h-34.269531zm0 0"/><path d="m702.464844 171.335938h34.265625v34.265624h-34.265625zm0 0"/><path d="m633.929688 171.335938h34.269531v34.265624h-34.269531zm0 0"/><path d="m222.730469 171.335938h34.269531v34.265624h-34.269531zm0 0"/><path d="m548.265625 942.332031h-68.53125c-9.464844 0-17.132813 7.671875-17.132813 17.132813 0 9.460937 7.667969 17.132812 17.132813 17.132812h68.53125c9.460937 0 17.132813-7.671875 17.132813-17.132812 0-9.460938-7.671876-17.132813-17.132813-17.132813zm0 0"/><path d="m668.199219 394.066406h-102.800781c-9.464844 0-17.132813 7.671875-17.132813 17.132813 0 9.464843 7.671875 17.132812 17.132813 17.132812h102.800781c9.460937 0 17.132812 7.671875 17.132812 17.132813v68.535156c0 9.460938-7.671875 17.132812-17.132812 17.132812h-68.535157c-28.386718 0-51.398437 23.011719-51.398437 51.398438v68.535156c0 28.386719 23.011719 51.398438 51.398437 51.398438h102.800782c9.460937 0 17.132812-7.671875 17.132812-17.132813 0-9.464843-7.671875-17.132812-17.132812-17.132812h-102.800782c-9.460937 0-17.132812-7.671875-17.132812-17.132813v-68.535156c0-9.460938 7.671875-17.132812 17.132812-17.132812h68.535157c28.386719 0 51.398437-23.011719 51.398437-51.398438v-68.53125c0-28.386719-23.011718-51.402344-51.398437-51.402344zm0 0"/><path d="m908.0625 496.867188c9.464844 0 17.136719-7.671876 17.136719-17.132813v-34.265625c0-28.386719-23.015625-51.402344-51.402344-51.402344h-68.53125c-28.386719 0-51.402344 23.015625-51.402344 51.402344v205.597656c0 28.386719 23.015625 51.398438 51.402344 51.398438h68.53125c28.386719 0 51.402344-23.011719 51.402344-51.398438v-102.800781c0-9.460937-7.671875-17.132813-17.136719-17.132813h-68.53125c-9.460938 0-17.132812 7.671876-17.132812 17.132813 0 9.464844 7.671874 17.132813 17.132812 17.132813h51.398438v85.667968c0 9.460938-7.667969 17.132813-17.132813 17.132813h-68.53125c-9.460937 0-17.132813-7.671875-17.132813-17.132813v-205.597656c0-9.464844 7.671876-17.132812 17.132813-17.132812h68.53125c9.460937 0 17.132813 7.667968 17.132813 17.132812v34.265625c0 9.460937 7.671874 17.132813 17.132812 17.132813zm0 0"/><path d="m1027.996094 548.265625c.472656-107.65625-58.957032-206.648437-154.199219-256.84375v-205.753906c-.054687-47.289063-38.378906-85.6093752-85.667969-85.667969h-548.261718c-47.289063.0585938-85.609376 38.378906-85.667969 85.667969v188.464843h34.265625v-137.066406h651.066406v138.902344c-32.824219-12.53125-67.664062-18.957031-102.800781-18.96875-160.859375 0-291.265625 130.40625-291.265625 291.265625 0 160.863281 130.40625 291.265625 291.265625 291.265625 35.136719-.007812 69.976562-6.433594 102.800781-18.964844v70.367188h-651.066406v-137.066406h-34.265625v188.464843c.058593 47.289063 38.378906 85.609375 85.667969 85.667969h548.265624c47.289063-.058594 85.609376-38.378906 85.664063-85.667969v-137.21875c95.246094-50.195312 154.675781-149.1875 154.199219-256.847656zm-839.53125-445.464844v-17.132812c0-28.386719 23.015625-51.398438 51.402344-51.398438h548.265624c28.386719 0 51.398438 23.011719 51.398438 51.398438v17.132812zm599.664062 890.933594h-548.261718c-28.386719 0-51.402344-23.015625-51.402344-51.402344v-17.132812h651.066406v17.132812c0 28.386719-23.011719 51.402344-51.402344 51.402344zm61.03125-214.320313c-35 17.117188-73.46875 25.964844-112.429687 25.851563-141.9375 0-257-115.0625-257-257 0-141.933594 115.0625-257 257-257 38.960937-.109375 77.429687 8.734375 112.429687 25.855469 127.652344 62.054687 180.832032 215.84375 118.777344 343.496094-25.171875 51.777343-67 93.605468-118.777344 118.777343zm0 0"/><path d="m0 651.066406h34.265625v68.53125h-34.265625zm0 0"/><path d="m51.398438 582.535156h34.269531v137.066406h-34.269531zm0 0"/><path d="m102.800781 514h34.265625v205.597656h-34.265625zm0 0"/><path d="m154.199219 445.46875h34.265625v274.128906h-34.265625zm0 0"/><path d="m205.597656 376.933594h34.269532v342.667968h-34.269532zm0 0"/></svg>