<?xml version="1.0" encoding="iso-8859-1"?>
<!-- Generator: Adobe Illustrator 21.0.0, SVG Export Plug-In . SVG Version: 6.00 Build 0)  -->
<svg version="1.1" id="Capa_1" xmlns="http://www.w3.org/2000/svg" xmlns:xlink="http://www.w3.org/1999/xlink" x="0px" y="0px"
	 viewBox="0 0 992.906 992.906" style="enable-background:new 0 0 992.906 992.906;" xml:space="preserve">
<g>
	<g id="Tablet_Application-2">
		
			<linearGradient id="SVGID_1_" gradientUnits="userSpaceOnUse" x1="-22.059" y1="808.8723" x2="1012.5131" y2="808.8723" gradientTransform="matrix(1 0 0 -1 0 990.9059)">
			<stop  offset="0" style="stop-color:#FFF33B"/>
			<stop  offset="0.014" style="stop-color:#FEE72E"/>
			<stop  offset="0.042" style="stop-color:#FED51B"/>
			<stop  offset="0.07" style="stop-color:#FDCA10"/>
			<stop  offset="0.1" style="stop-color:#FDC70C"/>
			<stop  offset="0.4" style="stop-color:#F3903F"/>
			<stop  offset="0.8" style="stop-color:#ED683C"/>
			<stop  offset="1" style="stop-color:#E93E3A"/>
		</linearGradient>
		<rect x="744.677" y="165.485" style="fill:url(#SVGID_1_);" width="33.097" height="33.097"/>
		
			<linearGradient id="SVGID_2_" gradientUnits="userSpaceOnUse" x1="-22.059" y1="808.8723" x2="1012.5131" y2="808.8723" gradientTransform="matrix(1 0 0 -1 0 990.9059)">
			<stop  offset="0" style="stop-color:#FFF33B"/>
			<stop  offset="0.014" style="stop-color:#FEE72E"/>
			<stop  offset="0.042" style="stop-color:#FED51B"/>
			<stop  offset="0.07" style="stop-color:#FDCA10"/>
			<stop  offset="0.1" style="stop-color:#FDC70C"/>
			<stop  offset="0.4" style="stop-color:#F3903F"/>
			<stop  offset="0.8" style="stop-color:#ED683C"/>
			<stop  offset="1" style="stop-color:#E93E3A"/>
		</linearGradient>
		<rect x="678.484" y="165.485" style="fill:url(#SVGID_2_);" width="33.097" height="33.097"/>
		
			<linearGradient id="SVGID_3_" gradientUnits="userSpaceOnUse" x1="-22.059" y1="808.8723" x2="1012.5131" y2="808.8723" gradientTransform="matrix(1 0 0 -1 0 990.9059)">
			<stop  offset="0" style="stop-color:#FFF33B"/>
			<stop  offset="0.014" style="stop-color:#FEE72E"/>
			<stop  offset="0.042" style="stop-color:#FED51B"/>
			<stop  offset="0.07" style="stop-color:#FDCA10"/>
			<stop  offset="0.1" style="stop-color:#FDC70C"/>
			<stop  offset="0.4" style="stop-color:#F3903F"/>
			<stop  offset="0.8" style="stop-color:#ED683C"/>
			<stop  offset="1" style="stop-color:#E93E3A"/>
		</linearGradient>
		<rect x="612.29" y="165.485" style="fill:url(#SVGID_3_);" width="33.097" height="33.097"/>
		
			<linearGradient id="SVGID_4_" gradientUnits="userSpaceOnUse" x1="-22.059" y1="808.8723" x2="1012.5131" y2="808.8723" gradientTransform="matrix(1 0 0 -1 0 990.9059)">
			<stop  offset="0" style="stop-color:#FFF33B"/>
			<stop  offset="0.014" style="stop-color:#FEE72E"/>
			<stop  offset="0.042" style="stop-color:#FED51B"/>
			<stop  offset="0.07" style="stop-color:#FDCA10"/>
			<stop  offset="0.1" style="stop-color:#FDC70C"/>
			<stop  offset="0.4" style="stop-color:#F3903F"/>
			<stop  offset="0.8" style="stop-color:#ED683C"/>
			<stop  offset="1" style="stop-color:#E93E3A"/>
		</linearGradient>
		<rect x="215.129" y="165.485" style="fill:url(#SVGID_4_);" width="33.097" height="33.097"/>
		
			<linearGradient id="SVGID_5_" gradientUnits="userSpaceOnUse" x1="-22.059" y1="64.1949" x2="1012.5131" y2="64.1949" gradientTransform="matrix(1 0 0 -1 0 990.9059)">
			<stop  offset="0" style="stop-color:#FFF33B"/>
			<stop  offset="0.014" style="stop-color:#FEE72E"/>
			<stop  offset="0.042" style="stop-color:#FED51B"/>
			<stop  offset="0.07" style="stop-color:#FDCA10"/>
			<stop  offset="0.1" style="stop-color:#FDC70C"/>
			<stop  offset="0.4" style="stop-color:#F3903F"/>
			<stop  offset="0.8" style="stop-color:#ED683C"/>
			<stop  offset="1" style="stop-color:#E93E3A"/>
		</linearGradient>
		<path style="fill:url(#SVGID_5_);" d="M529.548,910.163h-66.194c-9.139,0-16.548,7.409-16.548,16.548s7.409,16.548,16.548,16.548
			h66.194c9.139,0,16.548-7.409,16.548-16.548S538.688,910.163,529.548,910.163z"/>
		
			<linearGradient id="SVGID_6_" gradientUnits="userSpaceOnUse" x1="-22.059" y1="461.3562" x2="1012.5131" y2="461.3562" gradientTransform="matrix(1 0 0 -1 0 990.9059)">
			<stop  offset="0" style="stop-color:#FFF33B"/>
			<stop  offset="0.014" style="stop-color:#FEE72E"/>
			<stop  offset="0.042" style="stop-color:#FED51B"/>
			<stop  offset="0.07" style="stop-color:#FDCA10"/>
			<stop  offset="0.1" style="stop-color:#FDC70C"/>
			<stop  offset="0.4" style="stop-color:#F3903F"/>
			<stop  offset="0.8" style="stop-color:#ED683C"/>
			<stop  offset="1" style="stop-color:#E93E3A"/>
		</linearGradient>
		<path style="fill:url(#SVGID_6_);" d="M877.065,479.905c9.139,0,16.548-7.409,16.548-16.548v-33.097
			c0-27.418-22.227-49.645-49.645-49.645h-66.194c-27.418,0-49.645,22.227-49.645,49.645V628.84
			c0,27.418,22.227,49.645,49.645,49.645h66.194c27.418,0,49.645-22.227,49.645-49.645v-99.29c0-9.139-7.409-16.548-16.548-16.548
			h-66.194c-9.139,0-16.548,7.409-16.548,16.548s7.409,16.548,16.548,16.548h49.645v82.742c0,9.139-7.409,16.548-16.548,16.548
			h-66.194c-9.139,0-16.548-7.409-16.548-16.548V430.259c0-9.139,7.409-16.548,16.548-16.548h66.194
			c9.139,0,16.548,7.409,16.548,16.548v33.097C860.516,472.496,867.925,479.905,877.065,479.905z"/>
		
			<linearGradient id="SVGID_7_" gradientUnits="userSpaceOnUse" x1="-22.059" y1="494.453" x2="1012.5131" y2="494.453" gradientTransform="matrix(1 0 0 -1 0 990.9059)">
			<stop  offset="0" style="stop-color:#FFF33B"/>
			<stop  offset="0.014" style="stop-color:#FEE72E"/>
			<stop  offset="0.042" style="stop-color:#FED51B"/>
			<stop  offset="0.07" style="stop-color:#FDCA10"/>
			<stop  offset="0.1" style="stop-color:#FDC70C"/>
			<stop  offset="0.4" style="stop-color:#F3903F"/>
			<stop  offset="0.8" style="stop-color:#ED683C"/>
			<stop  offset="1" style="stop-color:#E93E3A"/>
		</linearGradient>
		<path style="fill:url(#SVGID_7_);" d="M992.903,529.55c0.456-103.983-56.945-199.595-148.935-248.077V82.743
			C843.913,37.069,806.9,0.056,761.226,0.001H231.677c-45.674,0.055-82.687,37.068-82.742,82.742v182.032h33.097V132.388h628.839
			v134.158c-31.705-12.101-65.354-18.31-99.29-18.319c-155.37,0-281.323,125.952-281.323,281.323s125.952,281.323,281.323,281.323
			c33.936-0.009,67.585-6.218,99.29-18.319v67.964H182.032V728.13h-33.097v182.032c0.055,45.674,37.068,82.687,82.742,82.742
			h529.548c45.674-0.055,82.687-37.068,82.742-82.742V777.627C935.961,729.147,993.363,633.534,992.903,529.55z M182.032,99.292
			V82.743c0-27.418,22.227-49.645,49.645-49.645h529.548c27.418,0,49.645,22.227,49.645,49.645v16.548H182.032z M761.226,959.808
			H231.677c-27.418,0-49.645-22.227-49.645-49.645v-16.548h628.839v16.548C810.871,937.581,788.644,959.808,761.226,959.808z
			 M820.171,752.804c-33.805,16.536-70.958,25.08-108.591,24.971c-137.091,0-248.226-111.134-248.226-248.226
			s111.134-248.226,248.226-248.226c37.632-0.108,74.786,8.436,108.591,24.972l0,0c123.295,59.936,174.659,208.474,114.723,331.769
			c-24.311,50.012-64.711,90.412-114.723,114.723V752.804z"/>
		
			<linearGradient id="SVGID_8_" gradientUnits="userSpaceOnUse" x1="-22.059" y1="328.9691" x2="1012.5131" y2="328.9691" gradientTransform="matrix(1 0 0 -1 0 990.9059)">
			<stop  offset="0" style="stop-color:#FFF33B"/>
			<stop  offset="0.014" style="stop-color:#FEE72E"/>
			<stop  offset="0.042" style="stop-color:#FED51B"/>
			<stop  offset="0.07" style="stop-color:#FDCA10"/>
			<stop  offset="0.1" style="stop-color:#FDC70C"/>
			<stop  offset="0.4" style="stop-color:#F3903F"/>
			<stop  offset="0.8" style="stop-color:#ED683C"/>
			<stop  offset="1" style="stop-color:#E93E3A"/>
		</linearGradient>
		<rect y="628.84" style="fill:url(#SVGID_8_);" width="33.097" height="66.194"/>
		
			<linearGradient id="SVGID_9_" gradientUnits="userSpaceOnUse" x1="-22.059" y1="362.0659" x2="1012.5131" y2="362.0659" gradientTransform="matrix(1 0 0 -1 0 990.9059)">
			<stop  offset="0" style="stop-color:#FFF33B"/>
			<stop  offset="0.014" style="stop-color:#FEE72E"/>
			<stop  offset="0.042" style="stop-color:#FED51B"/>
			<stop  offset="0.07" style="stop-color:#FDCA10"/>
			<stop  offset="0.1" style="stop-color:#FDC70C"/>
			<stop  offset="0.4" style="stop-color:#F3903F"/>
			<stop  offset="0.8" style="stop-color:#ED683C"/>
			<stop  offset="1" style="stop-color:#E93E3A"/>
		</linearGradient>
		<rect x="49.645" y="562.647" style="fill:url(#SVGID_9_);" width="33.097" height="132.387"/>
		
			<linearGradient id="SVGID_10_" gradientUnits="userSpaceOnUse" x1="-22.059" y1="395.1627" x2="1012.5131" y2="395.1627" gradientTransform="matrix(1 0 0 -1 0 990.9059)">
			<stop  offset="0" style="stop-color:#FFF33B"/>
			<stop  offset="0.014" style="stop-color:#FEE72E"/>
			<stop  offset="0.042" style="stop-color:#FED51B"/>
			<stop  offset="0.07" style="stop-color:#FDCA10"/>
			<stop  offset="0.1" style="stop-color:#FDC70C"/>
			<stop  offset="0.4" style="stop-color:#F3903F"/>
			<stop  offset="0.8" style="stop-color:#ED683C"/>
			<stop  offset="1" style="stop-color:#E93E3A"/>
		</linearGradient>
		<rect x="99.29" y="496.453" style="fill:url(#SVGID_10_);" width="33.097" height="198.581"/>
		
			<linearGradient id="SVGID_11_" gradientUnits="userSpaceOnUse" x1="-22.059" y1="428.2594" x2="1012.5131" y2="428.2594" gradientTransform="matrix(1 0 0 -1 0 990.9059)">
			<stop  offset="0" style="stop-color:#FFF33B"/>
			<stop  offset="0.014" style="stop-color:#FEE72E"/>
			<stop  offset="0.042" style="stop-color:#FED51B"/>
			<stop  offset="0.07" style="stop-color:#FDCA10"/>
			<stop  offset="0.1" style="stop-color:#FDC70C"/>
			<stop  offset="0.4" style="stop-color:#F3903F"/>
			<stop  offset="0.8" style="stop-color:#ED683C"/>
			<stop  offset="1" style="stop-color:#E93E3A"/>
		</linearGradient>
		<rect x="148.935" y="430.259" style="fill:url(#SVGID_11_);" width="33.097" height="264.774"/>
		
			<linearGradient id="SVGID_12_" gradientUnits="userSpaceOnUse" x1="-22.059" y1="461.3562" x2="1012.5131" y2="461.3562" gradientTransform="matrix(1 0 0 -1 0 990.9059)">
			<stop  offset="0" style="stop-color:#FFF33B"/>
			<stop  offset="0.014" style="stop-color:#FEE72E"/>
			<stop  offset="0.042" style="stop-color:#FED51B"/>
			<stop  offset="0.07" style="stop-color:#FDCA10"/>
			<stop  offset="0.1" style="stop-color:#FDC70C"/>
			<stop  offset="0.4" style="stop-color:#F3903F"/>
			<stop  offset="0.8" style="stop-color:#ED683C"/>
			<stop  offset="1" style="stop-color:#E93E3A"/>
		</linearGradient>
		<rect x="198.581" y="364.066" style="fill:url(#SVGID_12_);" width="33.097" height="330.968"/>
		
			<linearGradient id="SVGID_13_" gradientUnits="userSpaceOnUse" x1="-22.059" y1="461.3562" x2="1012.5131" y2="461.3562" gradientTransform="matrix(1 0 0 -1 0 990.9059)">
			<stop  offset="0" style="stop-color:#FFF33B"/>
			<stop  offset="0.014" style="stop-color:#FEE72E"/>
			<stop  offset="0.042" style="stop-color:#FED51B"/>
			<stop  offset="0.07" style="stop-color:#FDCA10"/>
			<stop  offset="0.1" style="stop-color:#FDC70C"/>
			<stop  offset="0.4" style="stop-color:#F3903F"/>
			<stop  offset="0.8" style="stop-color:#ED683C"/>
			<stop  offset="1" style="stop-color:#E93E3A"/>
		</linearGradient>
		<path style="fill:url(#SVGID_13_);" d="M645.387,380.614h-99.29c-9.139,0-16.548,7.409-16.548,16.548s7.409,16.548,16.548,16.548
			h99.29c9.139,0,16.548,7.409,16.548,16.548v66.194c0,9.139-7.409,16.548-16.548,16.548h-99.29
			c-9.139,0-16.548,7.409-16.548,16.548s7.409,16.548,16.548,16.548h99.29c9.139,0,16.548,7.409,16.548,16.548v66.194
			c0,9.139-7.409,16.548-16.548,16.548h-99.29c-9.139,0-16.548,7.409-16.548,16.548c0,9.139,7.409,16.548,16.548,16.548h99.29
			c27.418,0,49.645-22.227,49.645-49.645v-66.194c-0.043-12.252-4.644-24.05-12.908-33.097c8.263-9.046,12.865-20.844,12.908-33.097
			v-66.194C695.032,402.841,672.805,380.614,645.387,380.614z"/>
	</g>
</g>
<g>
</g>
<g>
</g>
<g>
</g>
<g>
</g>
<g>
</g>
<g>
</g>
<g>
</g>
<g>
</g>
<g>
</g>
<g>
</g>
<g>
</g>
<g>
</g>
<g>
</g>
<g>
</g>
<g>
</g>
</svg>
