<svg height="512pt" viewBox="0 -12 512 512" width="512pt" xmlns="http://www.w3.org/2000/svg"><path d="m501.960938 328.46875h-491.921876v69.910156h194.28125v80.035156h103.789063v-80.035156h193.851563zm0 0" fill="#6289fa"/><path d="m373.683594 328.46875h-363.644532v-243.503906h491.921876v243.503906zm0 0" fill="#c8f5ff"/><path d="m359.605469 224.367188 34.882812 34.878906 26.433594-26.429688-34.882813-34.882812 34.996094-17.382813-114.378906-35.570312 35.566406 114.382812zm0 0" fill="#ff5d5d"/><path d="m501.960938 84.964844h-491.921876v-74.925782h491.921876zm0 0" fill="#6289fa"/><path d="m265.488281 354.964844c-1.601562-3.875-5.617187-6.425782-9.808593-6.1875-4.175782.234375-7.847657 3.117187-9.066407 7.113281-1.203125 3.953125.21875 8.363281 3.496094 10.878906 3.371094 2.582031 8.144531 2.75 11.683594.386719 3.925781-2.625 5.496093-7.828125 3.695312-12.191406zm0 0"/><path d="m266.363281 189.640625h-174.964843c-5.546876 0-10.039063 4.496094-10.039063 10.039063 0 5.542968 4.492187 10.039062 10.039063 10.039062h174.96875c5.542968 0 10.039062-4.496094 10.039062-10.039062 0-5.542969-4.496094-10.039063-10.042969-10.039063zm0 0"/><path d="m266.363281 244.335938h-174.964843c-5.546876 0-10.039063 4.496093-10.039063 10.039062s4.492187 10.039062 10.039063 10.039062h174.96875c5.542968 0 10.039062-4.496093 10.039062-10.039062s-4.496094-10.039062-10.042969-10.039062zm0 0"/><path d="m431.042969 179.75c-.328125-4.089844-3.109375-7.570312-7.027344-8.789062l-114.378906-35.566407c-3.558594-1.109375-7.441407-.148437-10.082031 2.488281-2.636719 2.636719-3.59375 6.519532-2.488282 10.082032l35.566406 114.378906c1.21875 3.917969 4.699219 6.699219 8.789063 7.027344.269531.019531.535156.03125.800781.03125 3.789063 0 7.285156-2.140625 8.988282-5.574219l11.171874-22.488281 25.003907 25.007812c3.921875 3.917969 10.277343 3.917969 14.199219 0l26.433593-26.433594c1.878907-1.882812 2.9375-4.4375 2.9375-7.097656 0-2.664062-1.058593-5.214844-2.9375-7.101562l-25.007812-25.003906 22.488281-11.171876c3.675781-1.824218 5.867188-5.699218 5.542969-9.789062zm-24.320313 53.066406-12.234375 12.234375-27.785156-27.785156c-1.898437-1.898437-4.457031-2.9375-7.097656-2.9375-.539063 0-1.082031.042969-1.621094.128906-3.191406.523438-5.933594 2.546875-7.371094 5.441407l-6.242187 12.570312-22.457032-72.226562 72.226563 22.457031-12.570313 6.242187c-2.894531 1.441406-4.917968 4.183594-5.441406 7.371094-.519531 3.191406.523438 6.433594 2.808594 8.722656zm0 0"/><path d="m501.960938 0h-491.921876c-5.542968 0-10.039062 4.496094-10.039062 10.039062v388.339844c0 5.542969 4.496094 10.039063 10.039062 10.039063h184.242188v59.957031h-55.707031c-5.542969 0-10.039063 4.496094-10.039063 10.039062 0 5.542969 4.496094 10.039063 10.039063 10.039063h235.28125c5.542969 0 10.039062-4.496094 10.039062-10.039063 0-5.542968-4.496093-10.039062-10.039062-10.039062h-55.707031v-59.957031h183.8125c5.542968 0 10.039062-4.496094 10.039062-10.039063v-388.339844c0-5.542968-4.496094-10.039062-10.039062-10.039062zm-481.882813 20.078125h471.84375v54.847656h-471.84375zm277.992187 448.296875h-83.710937v-59.960938h83.710937zm10.039063-80.035156h-288.03125v-49.832032h353.605469c5.542968 0 10.039062-4.492187 10.039062-10.039062 0-5.542969-4.496094-10.039062-10.039062-10.039062h-353.605469v-223.425782h471.84375v223.425782h-37.949219c-5.542968 0-10.039062 4.496093-10.039062 10.039062 0 5.546875 4.496094 10.039062 10.039062 10.039062h37.949219v49.832032zm0 0"/><path d="m93.375 43.660156c-1.667969-4-5.835938-6.550781-10.167969-6.160156-4.152343.378906-7.710937 3.375-8.796875 7.398438-1.074218 3.984374.480469 8.371093 3.855469 10.765624 3.425781 2.429688 8.085937 2.476563 11.550781.089844 3.832032-2.640625 5.351563-7.796875 3.558594-12.09375zm0 0"/><path d="m53.15625 43.660156c-1.632812-3.917968-5.683594-6.460937-9.929688-6.167968-4.070312.285156-7.640624 3.046874-8.890624 6.9375-1.285157 3.980468.097656 8.492187 3.433593 11.039062 3.390625 2.585938 8.132813 2.734375 11.683594.378906 3.933594-2.605468 5.519531-7.835937 3.703125-12.1875zm0 0"/><path d="m133.59375 43.660156c-1.667969-3.996094-5.828125-6.550781-10.160156-6.160156-4.152344.378906-7.710938 3.375-8.796875 7.398438-1.070313 3.976562.476562 8.371093 3.84375 10.765624 3.433593 2.433594 8.082031 2.46875 11.550781.089844 3.851562-2.636718 5.351562-7.796875 3.5625-12.09375zm0 0"/><path d="m423.09375 324.628906c-1.632812-3.945312-5.722656-6.480468-9.988281-6.171875-4.226563.304688-7.878907 3.324219-8.980469 7.417969-1.039062 3.859375.390625 8.132812 3.582031 10.558594 3.394531 2.582031 8.128907 2.738281 11.683594.382812 3.953125-2.621094 5.507813-7.820312 3.703125-12.1875zm0 0"/><path d="m266.363281 134.941406h-174.964843c-5.546876 0-10.039063 4.496094-10.039063 10.039063 0 5.546875 4.492187 10.042969 10.039063 10.042969h174.96875c5.542968 0 10.039062-4.496094 10.039062-10.042969 0-5.542969-4.496094-10.039063-10.042969-10.039063zm0 0"/></svg>