<svg id="color" height="512" viewBox="0 0 24 24" width="512" xmlns="http://www.w3.org/2000/svg"><path d="m12 17.994c-2.481 0-4.5-2.05-4.5-4.568 0-2.593 3.532-6.714 3.935-7.175.285-.326.845-.326 1.13 0 .403.461 3.935 4.582 3.935 7.175 0 2.518-2.019 4.568-4.5 4.568z" fill="#f44336"/><path d="m12 6.006c-.211 0-.422.082-.565.245-.403.461-3.935 4.582-3.935 7.175 0 2.518 2.019 4.568 4.5 4.568z" fill="#d43a2f"/><path d="m1.5 12c0-5.79 4.71-10.5 10.5-10.5 2.571 0 4.982.93 6.863 2.576l-.643.644c-.471.47-.138 1.28.53 1.28h2.5c.414 0 .75-.336.75-.75v-2.5c0-.663-.806-1.004-1.28-.53l-.796.796c-2.163-1.927-4.95-3.016-7.924-3.016-6.617 0-12 5.383-12 12 0 1.173.173 2.339.513 3.466.119.395.534.621.935.502.396-.12.621-.538.501-.935-.298-.987-.449-2.007-.449-3.033z" fill="#607d8b"/><path d="m11.99 0c-6.612.005-11.99 5.387-11.99 12 0 1.173.173 2.339.513 3.466.097.324.393.534.718.534.072 0 .144-.01.217-.032.396-.12.621-.538.501-.935-.298-.987-.449-2.007-.449-3.033 0-5.786 4.705-10.495 10.49-10.5z" fill="#546d79"/><path d="m23.487 8.534c-.12-.396-.535-.623-.935-.502-.397.12-.621.538-.501.935.298.987.449 2.007.449 3.033 0 5.79-4.71 10.5-10.5 10.5-2.571 0-4.982-.93-6.863-2.576l.643-.644c.471-.47.138-1.28-.53-1.28h-2.5c-.414 0-.75.336-.75.75v2.5c0 .667.811 1 1.28.53l.796-.796c2.163 1.927 4.95 3.016 7.924 3.016 6.617 0 12-5.383 12-12 0-1.173-.173-2.339-.513-3.466z" fill="#607d8b"/><path d="m5.25 18h-2.5c-.414 0-.75.336-.75.75v2.5c0 .452.371.75.757.75.184 0 .371-.068.523-.22l.796-.796c2.161 1.925 4.944 3.014 7.914 3.016v-1.5c-2.568-.002-4.975-.932-6.854-2.576l.644-.644c.471-.47.138-1.28-.53-1.28z" fill="#546d79"/></svg>