<svg id="Layer_5" enable-background="new 0 0 64 64" height="512" viewBox="0 0 64 64" width="512" xmlns="http://www.w3.org/2000/svg"><g><g><g><path d="m62 6v2c0 1.1-.9 2-2 2h-56c-1.1 0-2-.9-2-2v-2c0-1.1.9-2 2-2h17v1c0 .55.45 1 1 1h20c.55 0 1-.45 1-1v-1h17c1.1 0 2 .9 2 2z" fill="#aab2bd"/></g><g><path d="m43 4v1c0 .55-.45 1-1 1h-20c-.55 0-1-.45-1-1v-1-1c0-.55.45-1 1-1h20c.55 0 1 .45 1 1z" fill="#fcd770"/></g><g><path d="m4 10h56v46h-56z" fill="#e6e9ed"/></g><g><path d="m48 42h4v10h-4z" fill="#5cd6b3"/></g><g><path d="m40 38h4v14h-4z" fill="#5cd6b3"/></g><g><path d="m32 44h4v8h-4z" fill="#5cd6b3"/></g><g><path d="m34 24h-10v-10c5.52 0 10 4.48 10 10z" fill="#5cd6b3"/></g><g><path d="m38 14h18v4h-18z" fill="#ff826e"/></g><g><path d="m24 33.02c-1.1 0-2 .9-2 2v-2c0-.55-.22-1.05-.59-1.41-.36-.37-.86-.59-1.41-.59-1.1 0-2 .9-2 2v-1c0-.55-.22-1.05-.59-1.41l-.01-.01 6.6-6.6h10c0 4.97-3.61 9.08-8.36 9.87h-.01c-.06-.09-.14-.18-.22-.26-.36-.37-.86-.59-1.41-.59z" fill="#fcd770"/></g><g><path d="m16 30.02c-1.1 0-2 .9-2 2v-8.02c0-5.52 4.48-10 10-10v10l-6.6 6.6c-.36-.36-.85-.58-1.4-.58z" fill="#ff826e"/></g><g><path d="m6.99 52h.01 16 .01c1.1.01 1.99.9 1.99 2v2 6h-20v-8c0-1.1.89-1.99 1.99-2z" fill="#4fc1e9"/></g><g><path d="m10 39.27v-17.25c0-1.1.9-2 2-2 .55 0 1.05.22 1.41.59.37.36.59.86.59 1.41v1.98 8.02c0-1.1.9-2 2-2 .55 0 1.04.22 1.4.58l.01.01c.37.36.59.86.59 1.41v1c0-1.1.9-2 2-2 .55 0 1.05.22 1.41.59.37.36.59.86.59 1.41v2c0-1.1.9-2 2-2 .55 0 1.05.22 1.41.59.08.08.16.17.22.26h.01c.23.33.36.72.36 1.15v11c0 1.3-.42 2.56-1.2 3.6l-1.79 2.38h-.01-16-.01l-1.8-2.4c-.77-1.04-1.19-2.3-1.19-3.59v-5.55c0-.97-.23-1.94-.66-2.81l-1.17-2.33c-.11-.22-.17-.47-.17-.72 0-.9.72-1.62 1.62-1.62h.09c.1 0 .2 0 .29.01 3.35.15 6 2.9 6 6.28z" fill="#f0d0b4"/></g></g><g><path d="m60 3h-16c0-1.103-.897-2-2-2h-20c-1.103 0-2 .897-2 2h-16c-1.654 0-3 1.346-3 3v2c0 1.302.839 2.402 2 2.816v21.245c-1.145.28-2 1.307-2 2.536 0 .403.096.807.276 1.172l1.165 2.33c.366.73.559 1.547.559 2.364v5.546c0 1.497.493 2.984 1.39 4.186l.97 1.299c-.818.536-1.36 1.458-1.36 2.506v9h22v-6h35v-46.184c1.161-.414 2-1.514 2-2.816v-2c0-1.654-1.346-3-3-3zm-38 0h20l.001 2h-20.001zm-17.77 34.204-1.164-2.328c-.044-.087-.066-.184-.066-.279 0-.341.277-.618.714-.618 2.915 0 5.286 2.372 5.286 5.287v1.714 2h2v-2-1.714-17.245c0-.551.448-1 1-1s1 .449 1 1v10 6h2v-6c0-.551.448-1 1-1s1 .449 1 1v1 5h2v-5c0-.551.448-1 1-1s1 .448 1 1v2 3h2v-3c0-.552.448-1 1-1s1 .448 1 1v11c0 1.075-.355 2.141-1 3.001l-1.484 1.978h-15.03l-1.493-2.001c-.64-.858-.993-1.921-.993-2.99v-5.546c0-1.125-.267-2.252-.77-3.259zm18.77-22.145v8.527l-5.728 5.728c-.388-.183-.815-.293-1.272-.293-.352 0-.686.072-1 .184v-5.205c0-4.624 3.507-8.442 8-8.941zm2.969 17.716c-.528-.464-1.212-.755-1.969-.755-.395 0-.77.081-1.116.22-.346-1.274-1.501-2.22-2.884-2.22-.241 0-.472.036-.697.09l5.111-5.11h8.525c-.417 3.814-3.194 6.938-6.97 7.775zm-.969-9.775v-7.941c4.165.463 7.478 3.777 7.941 7.941zm-1 38h-18v-7c0-.552.448-1 1-1h16c.552 0 1 .448 1 1zm2-6v-1c0-1.047-.541-1.968-1.356-2.505l.956-1.275c.903-1.203 1.4-2.695 1.4-4.2v-11c0-.147-.023-.287-.043-.428 4.723-1.304 8.043-5.581 8.043-10.592 0-6.065-4.935-11-11-11-4.54 0-8.445 2.765-10.123 6.7-.516-.418-1.163-.679-1.877-.679-1.654 0-3 1.346-3 3v12.257c-1.044-1.099-2.428-1.877-4-2.168v-21.11h54v44zm35-47c0 .551-.448 1-1 1h-56c-.552 0-1-.449-1-1v-2c0-.551.448-1 1-1h16c0 1.103.897 2 2 2h20c1.103 0 2-.897 2-2h16c.552 0 1 .449 1 1z"/><path d="m53 41h-6v10h-2v-14h-6v14h-2v-8h-6v8h-2v2h26v-2h-2zm-4 2h2v8h-2zm-8-4h2v12h-2zm-8 6h2v6h-2z"/><path d="m37 19h20v-6h-20zm2-4h16v2h-16z"/><path d="m37 21h2v2h-2z"/><path d="m41 21h16v2h-16z"/><path d="m37 25h20v2h-20z"/><path d="m37 29h20v2h-20z"/><path d="m55 33h2v2h-2z"/><path d="m37 33h16v2h-16z"/></g></g></svg>