<?xml version="1.0" encoding="iso-8859-1"?>
<!-- Generator: Adobe Illustrator 19.0.0, SVG Export Plug-In . SVG Version: 6.00 Build 0)  -->
<svg version="1.1" id="Capa_1" xmlns="http://www.w3.org/2000/svg" xmlns:xlink="http://www.w3.org/1999/xlink" x="0px" y="0px"
	 viewBox="0 0 512.03 512.03" style="enable-background:new 0 0 512.03 512.03;" xml:space="preserve">
<g transform="translate(0 -1)">
	<g>
		<path style="fill:#7F8C8D;" d="M110.944,478.896c-3.296-0.004-6.294-1.904-7.705-4.883c-1.41-2.978-0.98-6.503,1.105-9.055
			c2.383-2.917,58.992-71.396,109.004-71.396c4.713,0,8.533,3.82,8.533,8.533s-3.821,8.533-8.533,8.533
			c-41.941,0-95.262,64.488-95.796,65.138C115.932,477.751,113.505,478.901,110.944,478.896z"/>
		<path style="fill:#7F8C8D;" d="M401.086,478.896c-2.561,0.004-4.989-1.145-6.608-3.129c-0.533-0.65-53.854-65.138-95.796-65.138
			c-4.713,0-8.533-3.82-8.533-8.533s3.82-8.533,8.533-8.533c50.012,0,106.621,68.479,109.004,71.396
			c2.085,2.552,2.515,6.076,1.105,9.055C407.38,476.992,404.381,478.892,401.086,478.896z"/>
		<path style="fill:#7F8C8D;" d="M332.806,333.83c-1.775,0.001-3.506-0.554-4.95-1.587l-71.842-51.317l-71.842,51.317
			c-3.836,2.738-9.166,1.848-11.904-1.988c-2.738-3.836-1.848-9.166,1.988-11.904l67.075-47.913l-32.942-23.529
			c-3.019-2.156-4.3-6.015-3.168-9.548c1.132-3.533,4.416-5.93,8.126-5.931h85.333c3.71,0.001,6.994,2.398,8.126,5.931
			c1.132,3.533-0.149,7.392-3.168,9.548l-32.941,23.529l67.075,47.912c3.022,2.156,4.303,6.019,3.169,9.553
			C339.808,331.438,336.518,333.834,332.806,333.83z M239.977,248.496l16.037,11.454l16.037-11.454H239.977z"/>
		<path style="fill:#7F8C8D;" d="M366.948,410.63H145.081c-4.08,0.001-7.59-2.885-8.376-6.888s1.37-8.003,5.147-9.545l91.625-37.483
			l-57.492-23.517c-3.777-1.542-5.934-5.542-5.147-9.545c0.787-4.003,4.297-6.889,8.376-6.888h153.6
			c4.08-0.001,7.59,2.885,8.376,6.888c0.787,4.003-1.37,8.003-5.147,9.545l-57.492,23.517l91.625,37.483
			c3.777,1.542,5.934,5.542,5.147,9.545C374.538,407.745,371.028,410.631,366.948,410.63z M188.477,393.563h135.075l-67.538-27.629
			L188.477,393.563z M222.611,333.83l33.404,13.667l33.404-13.667H222.611z"/>
	</g>
	<path style="fill:#95A5A5;" d="M503.482,513.03H8.548c-4.713,0-8.533-3.82-8.533-8.533s3.821-8.533,8.533-8.533h494.933
		c4.713,0,8.533,3.82,8.533,8.533S508.194,513.03,503.482,513.03z"/>
	<path style="fill:#4482C3;" d="M317.031,294.746c-4.007,0.001-7.475-2.786-8.337-6.699c-0.861-3.913,1.116-7.899,4.753-9.58
		c58.129-26.953,89.696-90.702,75.896-153.273S320.089,18.068,256.015,18.068S136.486,62.624,122.686,125.194
		c-13.8,62.57,17.766,126.32,75.896,153.273c4.264,1.985,6.118,7.046,4.145,11.315c-1.973,4.269-7.028,6.138-11.303,4.177
		c-65.404-30.314-100.927-102.033-85.406-172.43S183.927,1,256.015,1s134.476,50.132,149.997,120.528s-20.002,142.116-85.406,172.43
		C319.487,294.479,318.266,294.748,317.031,294.746z"/>
	<path style="fill:#285680;" d="M295.527,248.326c-4.004,0.003-7.471-2.779-8.337-6.688c-0.866-3.909,1.102-7.895,4.733-9.583
		c36.326-16.85,56.049-56.693,47.421-95.796c-8.628-39.103-43.285-66.947-83.329-66.947s-74.701,27.844-83.329,66.947
		s11.095,78.946,47.421,95.796c2.771,1.282,4.645,3.947,4.916,6.988c0.271,3.041-1.104,5.995-3.604,7.747s-5.746,2.034-8.512,0.74
		c-43.584-20.228-67.242-68.038-56.884-114.957c10.357-46.919,51.944-80.327,99.993-80.327s89.635,33.408,99.993,80.327
		s-13.301,94.73-56.884,114.957C297.997,248.055,296.77,248.327,295.527,248.326z"/>
	<path style="fill:#35495E;" d="M273.94,201.904c-4,0.002-7.465-2.774-8.334-6.679c-0.869-3.904,1.09-7.889,4.713-9.584
		c14.554-6.718,22.473-22.658,19.034-38.314s-17.309-26.811-33.339-26.811c-16.03,0-29.9,11.154-33.339,26.811
		s4.48,31.597,19.034,38.314c2.761,1.292,4.624,3.959,4.885,6.997c0.262,3.037-1.117,5.984-3.617,7.729
		c-2.5,1.745-5.741,2.025-8.502,0.732c-21.799-10.107-33.636-34.013-28.461-57.477c5.175-23.464,25.971-40.172,49.998-40.172
		s44.823,16.709,49.998,40.172c5.175,23.464-6.662,47.37-28.461,57.477C276.422,201.629,275.188,201.904,273.94,201.904z"/>
	<path style="fill:#95A5A5;" d="M418.152,513.03c-3.326,0.003-6.35-1.928-7.746-4.946L256.015,174.925L101.623,508.084
		c-1.99,4.26-7.052,6.108-11.318,4.131s-6.129-7.033-4.165-11.306L240.532,167.75c2.794-6.032,8.836-9.892,15.483-9.892
		c6.647,0,12.689,3.86,15.483,9.892L425.89,500.909c1.223,2.642,1.016,5.725-0.551,8.179
		C423.773,511.541,421.064,513.027,418.152,513.03z"/>
</g>
<g>
</g>
<g>
</g>
<g>
</g>
<g>
</g>
<g>
</g>
<g>
</g>
<g>
</g>
<g>
</g>
<g>
</g>
<g>
</g>
<g>
</g>
<g>
</g>
<g>
</g>
<g>
</g>
<g>
</g>
</svg>
