<svg height="512" viewBox="0 0 64 64" width="512" xmlns="http://www.w3.org/2000/svg"><g id="xml-file"><path d="m61 7v54h-40v-4h36v-42l-8-8z" fill="#78b9eb"/><path d="m3 22h50v20h-50z" fill="#78b9eb"/><g fill="#006df0"><path d="m61 6h-11.586l-3.707-3.707a1 1 0 0 0 -.707-.293h-28a1 1 0 0 0 -1 1v18h-13a1 1 0 0 0 -1 1v20a1 1 0 0 0 1 1h13v14a1 1 0 0 0 1 1h3v3a1 1 0 0 0 1 1h40a1 1 0 0 0 1-1v-54a1 1 0 0 0 -1-1zm-15-.586 8.586 8.586h-7.586a1 1 0 0 1 -1-1zm-42 17.586h48v18h-48zm14 20h35a1 1 0 0 0 1-1v-20a1 1 0 0 0 -1-1h-35v-17h26v9a3 3 0 0 0 3 3h9v40h-38zm42 17h-38v-2h35a1 1 0 0 0 1-1v-42a1 1 0 0 0 -.293-.707l-6.293-6.293h8.586z"/><path d="m37 25h-2v13a1 1 0 0 0 1 1h9v-2h-8z"/><path d="m20.882 25.528a1 1 0 0 0 -.882-.528h-3v2h1.131l-2.131 3.2-2.131-3.2h1.131v-2h-3a1 1 0 0 0 -.832 1.555l3.632 5.445-3.63 5.445a1 1 0 0 0 .83 1.555h3v-2h-1.131l2.131-3.2 2.131 3.2h-1.131v2h3a1 1 0 0 0 .832-1.555l-3.632-5.445 3.63-5.445a1 1 0 0 0 .052-1.027z"/><path d="m32 25h-8a1 1 0 0 0 -1 1v13h2v-12h2v6h2v-6h2v12h2v-13a1 1 0 0 0 -1-1z"/></g></g></svg>